<svg width="71" height="16" viewBox="0 0 71 16" fill="none" xmlns="http://www.w3.org/2000/svg">
<path d="M34.6301 0.508713H22.1201C19.2197 0.508713 17.9341 2.36424 17.6368 4.13485V0.508713H10.6943C10.316 0.473062 9.93543 0.547299 9.59778 0.722619C9.26012 0.897939 8.97954 1.16699 8.78931 1.49786L6.885 4.34539H34.6265L34.6301 0.508713Z" fill="#B3B3B3"/>
<path d="M0 15.4957H4.9807L11.2243 5.18466L6.77077 4.73505L0 15.4957Z" fill="#B3B3B3"/>
<path d="M39.4639 0.512284H35.363V4.34896H39.4639V0.512284Z" fill="#B3B3B3"/>
<path d="M65.5012 6.50708L52.6691 5.72704C52.6691 7.7353 53.959 9.08127 56.1563 9.26469L65.2968 9.98406C65.9993 10.044 66.4391 10.2239 66.4391 10.8233C66.4391 11.3943 65.9425 11.6027 64.9158 11.6027H52.4641V15.4993H65.1791C69.1927 15.4993 70.9501 14.0598 70.9501 10.7927C70.9501 7.8552 69.368 6.74687 65.5012 6.50708Z" fill="#B3B3B3"/>
<path d="M52.5017 5.72704L48.4575 5.48725V9.89414C48.4575 11.2729 47.7835 11.6926 45.44 11.6926H42.2182C40.2841 11.6926 39.4639 11.1216 39.4639 9.89414V5.06761L35.3623 4.76787V10.2531H35.275C35.0409 8.6645 34.4548 6.8061 30.5582 6.53634L17.7255 5.66709C17.7255 7.67535 19.131 8.87431 21.3283 9.1141L30.2645 10.0419C30.9676 10.1018 31.4955 10.3116 31.4955 10.9111C31.4955 11.5705 30.9683 11.6305 30.1474 11.6305H17.5786V5.63569L13.4777 5.36592V15.5H30.1779C33.8986 15.5 35.0997 13.5217 35.2764 11.8731H35.3637C35.8334 14.4809 38.0598 15.5 41.8386 15.5H45.9998C50.4236 15.5 52.5038 14.1212 52.5038 10.8833L52.5017 5.72704Z" fill="#B3B3B3"/>
<path d="M70.6664 4.34895V0.508712H56.8963C54.03 0.508712 52.7365 2.32499 52.5095 4.07705C52.5095 4.09703 52.5045 4.11701 52.5017 4.137V0.508712H48.4575V4.34539H70.6649L70.6664 4.34895Z" fill="#B3B3B3"/>
</svg>
